HIERARCHY
ROOT Hips
{
  OFFSET 0.000000 0.000000 0.000000
  CHANNELS 6 Xposition Yposition Zposition Xrotation Yrotation Zrotation
  JOINT Spine
  {
    OFFSET 1.388230 22.849755 -8.157144
    CHANNELS 3 Xrotation Yrotation Zrotation
    JOINT Chest
    {
      OFFSET 1.388230 22.849755 -8.157144
      CHANNELS 3 Xrotation Yrotation Zrotation
      JOINT Neck
      {
        OFFSET 0.386562 8.498444 -3.690407
        CHANNELS 3 Xrotation Yrotation Zrotation
        JOINT Head
        {
          OFFSET 0.662911 7.396516 -7.447500
          CHANNELS 3 Xrotation Yrotation Zrotation
          End Site
          {
            OFFSET 0.198873 2.218955 -2.234250
          }
        }
      }
      JOINT LeftShoulder
      {
        OFFSET 17.248308 -1.208605 -0.261267
        CHANNELS 3 Xrotation Yrotation Zrotation
        JOINT LeftArm
        {
          OFFSET 7.635523 -21.435821 1.774202
          CHANNELS 3 Xrotation Yrotation Zrotation
          JOINT LeftForeArm
          {
            OFFSET 7.643843 -21.327462 -9.147581
            CHANNELS 3 Xrotation Yrotation Zrotation
            JOINT LeftHand
            {
              OFFSET 0.473402 -5.275506 -2.178749
              CHANNELS 3 Xrotation Yrotation Zrotation
              End Site
              {
                OFFSET 0.142021 -1.582652 -0.653625
              }
            }
          }
        }
      }
      JOINT RightShoulder
      {
        OFFSET -17.248308 1.208605 0.261267
        CHANNELS 3 Xrotation Yrotation Zrotation
        JOINT RightArm
        {
          OFFSET -12.133127 -21.363330 5.693170
          CHANNELS 3 Xrotation Yrotation Zrotation
          JOINT RightForeArm
          {
            OFFSET -7.740244 -22.047532 -5.230031
            CHANNELS 3 Xrotation Yrotation Zrotation
            JOINT RightHand
            {
              OFFSET -0.480044 -5.557554 -1.525311
              CHANNELS 3 Xrotation Yrotation Zrotation
              End Site
              {
                OFFSET -0.144013 -1.667266 -0.457593
              }
            }
          }
        }
      }
    }
  }
  JOINT LeftUpLeg
  {
    OFFSET 11.699587 -0.675443 -0.599665
    CHANNELS 3 Xrotation Yrotation Zrotation
    JOINT LeftLeg
    {
      OFFSET -6.527727 -38.483662 1.737457
      CHANNELS 3 Xrotation Yrotation Zrotation
      JOINT LeftFoot
      {
        OFFSET 3.065902 -35.809878 12.679608
        CHANNELS 3 Xrotation Yrotation Zrotation
        End Site
        {
          OFFSET 0.919771 -10.742963 3.803882
        }
      }
    }
  }
  JOINT RightUpLeg
  {
    OFFSET -11.699587 0.675443 0.599665
    CHANNELS 3 Xrotation Yrotation Zrotation
    JOINT RightLeg
    {
      OFFSET -1.173808 -37.981520 -1.210152
      CHANNELS 3 Xrotation Yrotation Zrotation
      JOINT RightFoot
      {
        OFFSET -7.846448 -39.021816 7.691272
        CHANNELS 3 Xrotation Yrotation Zrotation
        End Site
        {
          OFFSET -2.353934 -11.706545 2.307382
        }
      }
    }
  }
}
MOTION
Frames: 17
Frame Time: 0.083333
0.000000 60.000000 0.000000 -0.754759 0.036580 -0.025527 -0.754759 0.036580 -0.025527 0.000000 0.000000 0.000000 0.496996 -0.067327 -0.023415 5.000000 0.000000 0.000000 -0.027464 0.034519 0.533513 0.681685 -0.153686 0.516759 1.106403 -0.342019 0.551136 0.000000 0.000000 0.000000 2.507782 -1.334604 0.356902 3.202876 -0.437275 0.310720 2.464044 -0.322208 0.335846 0.000000 0.000000 0.000000 -2.295424 0.499936 1.262340 -0.412969 0.393010 1.184662 0.000000 0.000000 0.000000 -4.839706 0.138123 -0.216140 -3.305358 0.856089 0.702019 0.000000 0.000000 0.000000
-0.257243 60.000000 -1.638203 -0.761052 0.042716 -0.010551 -0.761052 0.042716 -0.010551 0.000000 0.000000 0.000000 0.330991 -0.041861 -0.012676 5.000000 0.000000 0.000000 -0.138342 -0.008417 0.474633 0.660185 -0.133461 0.463234 1.067883 -0.314257 0.504804 0.000000 0.000000 0.000000 2.144296 -1.137399 0.323476 2.762762 -0.375218 0.260723 2.154879 -0.277846 0.285181 0.000000 0.000000 0.000000 -2.141339 0.472996 1.176666 -0.453032 0.357501 1.086920 0.000000 0.000000 0.000000 -4.334311 0.120443 -0.222932 -2.884310 0.754126 0.634023 0.000000 0.000000 0.000000
-0.710694 60.000000 -4.164375 -2.153119 0.140919 0.022356 -2.153119 0.140919 0.022356 0.000000 0.000000 0.000000 0.511469 -0.046830 -0.001937 5.000000 0.000000 0.000000 -0.664287 -0.125368 1.238925 1.776031 -0.333076 1.181562 2.871635 -0.821095 1.310137 0.000000 0.000000 0.000000 5.053109 -2.673488 0.795579 6.485110 -0.866786 0.565223 5.167837 -0.633963 0.622832 0.000000 0.000000 0.000000 -5.512243 1.243871 3.140330 -1.295122 0.887024 2.718312 0.000000 0.000000 0.000000 -10.718983 0.290189 -0.622340 -6.820129 1.817726 1.628172 0.000000 0.000000 0.000000
-1.080862 60.000000 -5.480810 -3.047343 0.251816 0.167268 -3.047343 0.251816 0.167268 0.000000 0.000000 0.000000 -0.033841 0.083497 0.079981 5.000000 0.000000 0.000000 -1.352121 -0.321845 1.687081 2.253127 -0.402146 1.442431 3.689416 -1.032347 1.623064 0.000000 0.000000 0.000000 5.143857 -2.734845 0.741796 6.281295 -0.768707 0.314263 5.303239 -0.493843 0.354009 0.000000 0.000000 0.000000 -6.393535 1.519719 4.192241 -1.611620 0.960720 2.969724 0.000000 0.000000 0.000000 -11.695641 0.304333 -0.795532 -6.526777 1.859617 2.046549 0.000000 0.000000 0.000000
-1.402397 60.000000 -5.917965 -3.256636 0.322216 0.312844 -3.256636 0.322216 0.312844 0.000000 0.000000 0.000000 0.237301 0.121570 0.142449 5.000000 0.000000 0.000000 -0.913195 -0.119048 2.272446 2.068388 -0.481008 1.582143 3.588937 -1.093023 1.699446 0.000000 0.000000 0.000000 5.366424 -2.975434 0.164326 5.633533 -0.524787 -0.255714 4.957447 -0.115850 -0.277610 0.000000 0.000000 0.000000 -5.419806 1.376153 4.800359 -0.750591 0.838121 2.502202 0.000000 0.000000 0.000000 -10.614975 0.293684 -0.560376 -5.083530 1.624008 2.404411 0.000000 0.000000 0.000000
-1.822454 60.000000 -6.127072 -3.935158 0.445253 0.508331 -3.935158 0.445253 0.508331 0.000000 0.000000 0.000000 0.193994 0.210253 0.225652 5.000000 0.000000 0.000000 -0.537550 0.025771 2.487549 2.315889 -0.486762 1.642104 4.034461 -1.199801 1.839868 0.000000 0.000000 0.000000 5.761070 -3.362716 -0.667989 6.000954 -0.403306 -0.797614 5.401434 0.165534 -0.817867 0.000000 0.000000 0.000000 -4.973554 1.307590 5.089350 -0.434397 0.908290 2.644017 0.000000 0.000000 0.000000 -10.374373 0.296390 -0.412313 -4.926034 1.662431 2.703147 0.000000 0.000000 0.000000
-2.693350 60.000000 -5.835325 -4.811071 0.648139 0.861561 -4.811071 0.648139 0.861561 0.000000 0.000000 0.000000 -0.521543 0.472269 0.415397 5.000000 0.000000 0.000000 -1.081044 -0.164042 2.395819 3.732596 -0.682516 2.318774 5.400235 -2.102192 2.917544 0.000000 0.000000 0.000000 5.687795 -3.483041 -1.495454 6.551958 -0.458977 -0.801034 6.076574 0.175620 -0.883510 0.000000 0.000000 0.000000 -4.763362 1.267686 5.157784 -0.724578 0.847308 2.524825 0.000000 0.000000 0.000000 -10.517761 0.305501 -0.324628 -5.612714 1.841483 2.783853 0.000000 0.000000 0.000000
-3.798798 60.000000 -6.009728 -5.351215 0.824176 1.200104 -5.351215 0.824176 1.200104 0.000000 0.000000 0.000000 -1.305641 0.872406 0.731390 5.000000 0.000000 0.000000 -2.627009 -0.636445 2.562273 6.962271 -1.520120 4.583061 8.572801 -4.787124 5.834240 0.000000 0.000000 0.000000 6.485791 -4.157904 -2.866611 8.082370 -0.703893 -0.524835 6.754697 0.080951 -0.767286 0.000000 0.000000 0.000000 -4.374445 1.194607 5.306691 -1.525691 0.754267 2.402354 0.000000 0.000000 0.000000 -10.440084 0.301195 -0.361119 -6.508591 2.049675 2.782222 0.000000 0.000000 0.000000
-5.242286 60.000000 -7.419654 -5.112986 0.784519 1.147824 -5.112986 0.784519 1.147824 0.000000 0.000000 0.000000 -1.638144 0.963672 0.785627 5.000000 0.000000 0.000000 -5.237606 -1.043272 6.147242 10.670419 -3.485823 8.935707 12.523438 -9.667507 10.549539 0.000000 0.000000 0.000000 9.469929 -5.744970 -3.148465 10.370767 -1.073743 -0.142708 6.864305 -0.024269 -0.592983 0.000000 0.000000 0.000000 -3.894635 1.134492 5.832257 -2.279273 0.745090 2.504480 0.000000 0.000000 0.000000 -9.916328 0.288425 -0.315505 -6.696643 2.116602 2.869313 0.000000 0.000000 0.000000
-7.132708 60.000000 -8.927111 -5.717868 0.717574 0.881226 -5.717868 0.717574 0.881226 0.000000 0.000000 0.000000 -1.825268 1.245076 1.035186 5.000000 0.000000 0.000000 -5.509200 -0.114598 16.069772 14.458912 -5.856398 13.575334 15.683859 -14.809986 14.868623 0.000000 0.000000 0.000000 12.153124 -7.115215 -3.188574 10.937382 -1.316031 0.395352 5.622420 -0.105502 -0.348734 0.000000 0.000000 0.000000 -4.173973 1.224282 6.164026 -4.066485 0.604183 2.426637 0.000000 0.000000 0.000000 -9.447825 0.287321 -0.054821 -7.405525 2.282714 2.870009 0.000000 0.000000 0.000000
-9.223938 60.000000 -9.803641 -6.433929 0.515354 0.281114 -6.433929 0.515354 0.281114 0.000000 0.000000 0.000000 -2.173460 1.958638 1.677318 5.000000 0.000000 0.000000 -1.492384 2.081820 31.560754 17.673927 -7.824541 17.077210 16.146695 -18.405641 18.058050 0.000000 0.000000 0.000000 11.078493 -6.628597 -3.631539 8.274462 -1.180993 0.905054 3.353648 -0.153637 -0.060220 0.000000 0.000000 0.000000 -4.182945 1.265577 6.624539 -3.811522 0.543620 2.231900 0.000000 0.000000 0.000000 -8.929688 0.297887 0.446658 -8.331455 2.460814 2.724935 0.000000 0.000000 0.000000
-10.495690 60.000000 -10.236750 -7.058883 0.328262 -0.260032 -7.058883 0.328262 -0.260032 0.000000 0.000000 0.000000 -2.745660 2.519544 2.142146 5.000000 0.000000 0.000000 1.680935 3.504780 46.879697 16.901554 -8.589832 18.589734 11.672535 -19.017225 20.086798 0.000000 0.000000 0.000000 8.887490 -5.569139 -3.907657 6.766781 -1.078261 1.139062 1.820744 -0.165206 0.119619 0.000000 0.000000 0.000000 -4.428119 1.311827 6.518150 -3.384143 0.581053 2.266224 0.000000 0.000000 0.000000 -9.560468 0.345203 1.016648 -8.643704 2.509530 2.634840 0.000000 0.000000 0.000000
-10.882674 60.000000 -10.698568 -6.553367 0.185550 -0.524908 -6.553367 0.185550 -0.524908 0.000000 0.000000 0.000000 -3.075559 2.704914 2.274591 5.000000 0.000000 0.000000 0.527143 4.381733 58.741645 13.211861 -7.898549 17.825699 6.270835 -16.425036 19.588895 0.000000 0.000000 0.000000 8.325280 -5.390608 -4.563595 7.362798 -1.121688 1.048105 -1.565141 0.047313 0.082113 0.000000 0.000000 0.000000 -3.408348 1.085213 6.689635 -0.295166 0.852712 2.502333 0.000000 0.000000 0.000000 -8.433861 0.334095 1.948563 -7.060107 2.106570 2.509409 0.000000 0.000000 0.000000
-10.757514 60.000000 -9.884128 -6.055984 0.051897 -0.773745 -6.055984 0.051897 -0.773745 0.000000 0.000000 0.000000 -4.067326 2.793870 2.234088 5.000000 0.000000 0.000000 -0.155826 5.053757 66.119911 7.829121 -6.958521 16.667136 4.045154 -13.779683 17.614295 0.000000 0.000000 0.000000 8.256324 -5.535414 -5.686929 6.473401 -0.996730 0.988992 -0.661190 -0.086668 0.272083 0.000000 0.000000 0.000000 -0.753158 0.506046 7.210126 4.300963 1.292735 2.991049 0.000000 0.000000 0.000000 -6.107850 0.244458 2.727466 -4.320139 1.492892 2.577415 0.000000 0.000000 0.000000
-10.498120 60.000000 -7.102860 -5.600607 0.087834 -0.626051 -5.600607 0.087834 -0.626051 0.000000 0.000000 0.000000 -5.751887 2.543358 1.796355 5.000000 0.000000 0.000000 -0.396329 5.220306 67.491931 6.327829 -5.713847 14.051647 4.944177 -11.270659 14.399381 0.000000 0.000000 0.000000 8.252471 -5.689276 -6.647194 4.926301 -0.806855 0.967256 -1.109606 -0.143738 0.459522 0.000000 0.000000 0.000000 -1.176355 0.620197 7.448180 5.469307 1.450316 3.295801 0.000000 0.000000 0.000000 -4.645471 0.169197 2.963000 -2.552190 1.101086 2.633555 0.000000 0.000000 0.000000
-10.272721 60.000000 -2.480336 -5.477046 0.215581 -0.297475 -5.477046 0.215581 -0.297475 0.000000 0.000000 0.000000 -7.322950 2.337627 1.427945 5.000000 0.000000 0.000000 -0.290677 4.976324 65.027198 6.051428 -4.368595 10.931304 4.905973 -8.639262 11.148022 0.000000 0.000000 0.000000 7.719762 -5.573663 -7.500208 3.375806 -0.620804 0.955831 -2.546509 0.007112 0.317130 0.000000 0.000000 0.000000 -3.451939 1.151794 7.338452 5.643999 1.474147 3.341824 0.000000 0.000000 0.000000 -4.954634 0.184410 2.781988 -2.750979 1.164163 2.713195 0.000000 0.000000 0.000000
-10.160626 60.000000 1.786070 -5.212796 0.439013 0.286985 -5.212796 0.439013 0.286985 0.000000 0.000000 0.000000 -8.968176 2.394835 1.280566 5.000000 0.000000 0.000000 -1.462827 4.930505 61.670762 4.806435 -3.564634 9.052906 1.929261 -6.315738 8.619973 0.000000 0.000000 0.000000 7.562312 -5.460259 -7.264018 2.353559 -0.510296 0.988069 -2.728491 0.027423 0.294657 0.000000 0.000000 0.000000 -4.306153 1.313128 6.873774 5.114186 1.550060 3.671805 0.000000 0.000000 0.000000 -5.467569 0.206376 2.472605 -2.579969 1.161790 2.877981 0.000000 0.000000 0.000000
